<svg version="1.1" id="Layer_1" xmlns="http://www.w3.org/2000/svg" xmlns:xlink="http://www.w3.org/1999/xlink" x="0px" y="0px"
	 width="100%" viewBox="0 0 512 512" enable-background="new 0 0 512 512" xml:space="preserve">
<path fill="#E5B81E" opacity="1.000000" stroke="none" 
	d="
M1.000005,364.000000 
	C1.000000,292.979095 1.000000,221.958206 1.251344,150.805145 
	C2.011377,150.062576 2.649917,149.520004 3.009463,148.831726 
	C9.391454,136.614410 19.464252,130.952133 33.231407,130.958206 
	C182.350479,131.024002 331.469604,131.026352 480.588684,130.954285 
	C494.340179,130.947632 504.490845,136.456543 510.950775,148.674698 
	C511.282532,149.302200 512.301147,149.566574 513.000000,150.000000 
	C513.000000,221.020889 513.000000,292.041779 512.749329,363.194275 
	C511.918610,364.086548 511.218384,364.783569 510.776611,365.617554 
	C504.601562,377.274536 494.789032,382.974762 481.748993,382.977936 
	C332.466797,383.013977 183.184616,382.978516 33.902458,383.037476 
	C20.082529,383.042938 9.573601,377.822083 3.049505,365.327393 
	C2.721622,364.699432 1.699100,364.434143 1.000005,364.000000 
M150.423050,330.922607 
	C153.165878,330.922607 155.908691,330.922607 159.060883,330.922607 
	C159.060883,300.415466 159.060883,270.758575 159.060883,241.101715 
	C159.323013,241.085007 159.585144,241.068314 159.847275,241.051605 
	C164.188721,270.936981 168.530167,300.822327 172.862549,330.645142 
	C181.016968,330.645142 188.617126,330.645142 196.528824,330.645142 
	C200.735184,299.671417 204.910706,268.924805 209.086227,238.178192 
	C209.427826,238.207062 209.769409,238.235947 210.110992,238.264832 
	C210.110992,269.015656 210.110992,299.766479 210.110992,330.601929 
	C221.252380,330.601929 231.977295,330.601929 242.671036,330.601929 
	C242.671036,281.886139 242.671036,233.491852 242.671036,185.241318 
	C226.074936,185.241318 209.829773,185.241318 193.454605,185.241318 
	C190.651932,206.778152 187.893692,227.973557 185.135452,249.168945 
	C184.804214,249.135818 184.472992,249.102692 184.141754,249.069550 
	C181.029434,227.734344 177.917114,206.399155 174.826050,185.209641 
	C158.082733,185.209641 141.997330,185.209641 125.848839,185.209641 
	C125.848839,233.817703 125.848839,282.088928 125.848839,330.922607 
	C133.866577,330.922607 141.653580,330.922607 150.423050,330.922607 
M285.500214,184.878281 
	C275.751221,184.878281 266.002258,184.878281 256.359467,184.878281 
	C256.359467,233.935135 256.359467,282.300293 256.359467,330.922089 
	C264.194122,330.922089 271.672516,331.025085 279.147034,330.899353 
	C292.292633,330.678223 305.467407,330.780365 318.571472,329.888153 
	C332.408264,328.946045 340.644501,321.309509 340.926331,307.740051 
	C341.579285,276.299072 341.675507,244.827606 341.052795,213.387192 
	C340.752075,198.202484 332.407349,189.447433 317.321747,187.069534 
	C307.185486,185.471802 296.783234,185.561844 285.500214,184.878281 
M391.577759,195.543594 
	C391.577759,192.097961 391.577759,188.652328 391.577759,185.217773 
	C379.037964,185.217773 367.149231,185.217773 355.333130,185.217773 
	C355.333130,233.918945 355.333130,282.271179 355.333130,330.925903 
	C364.133636,330.925903 372.600739,330.925903 381.067871,330.925873 
	C388.945709,330.925873 388.941467,330.924622 391.181885,323.332062 
	C391.247284,323.110474 391.623688,322.980621 392.194214,322.554993 
	C397.334259,328.150940 403.557343,331.837402 411.405640,332.648712 
	C425.886139,334.145599 439.167206,325.950745 439.720001,313.060577 
	C440.745850,289.140930 440.723602,265.156494 440.404053,241.208832 
	C440.276520,231.654022 433.982788,225.301987 424.636108,223.028503 
	C412.599609,220.100754 401.602997,222.062836 391.577698,231.991562 
	C391.577698,219.319275 391.577698,207.925934 391.577759,195.543594 
M112.687523,252.500168 
	C112.687523,230.064240 112.687523,207.628311 112.687523,185.157928 
	C99.733871,185.157928 87.474113,185.157928 75.131149,185.157928 
	C75.131149,233.823853 75.131149,282.204041 75.131149,330.659851 
	C87.707741,330.659851 99.948174,330.659851 112.687515,330.659851 
	C112.687515,304.749115 112.687515,279.124664 112.687523,252.500168 
z"/>
<path fill="#000000" opacity="1.000000" stroke="none" 
	d="
M1.000005,364.468628 
	C1.699100,364.434143 2.721622,364.699432 3.049505,365.327393 
	C9.573601,377.822083 20.082529,383.042938 33.902458,383.037476 
	C183.184616,382.978516 332.466797,383.013977 481.748993,382.977936 
	C494.789032,382.974762 504.601562,377.274536 510.776611,365.617554 
	C511.218384,364.783569 511.918610,364.086548 512.749329,363.662903 
	C513.000000,413.639832 513.000000,463.279663 513.000000,512.959717 
	C342.452423,512.959717 171.904816,512.959717 1.000000,512.959717 
	C1.000000,463.646332 1.000000,414.291840 1.000005,364.468628 
z"/>
<path fill="#000000" opacity="1.000000" stroke="none" 
	d="
M513.000000,149.531342 
	C512.301147,149.566574 511.282532,149.302200 510.950775,148.674698 
	C504.490845,136.456543 494.340179,130.947632 480.588684,130.954285 
	C331.469604,131.026352 182.350479,131.024002 33.231407,130.958206 
	C19.464252,130.952133 9.391454,136.614410 3.009463,148.831726 
	C2.649917,149.520004 2.011377,150.062576 1.251344,150.336487 
	C1.000000,100.360146 1.000000,50.720291 1.000000,1.040218 
	C171.547714,1.040218 342.095459,1.040218 513.000000,1.040218 
	C513.000000,50.353653 513.000000,99.708168 513.000000,149.531342 
z"/>
<path fill="#020201" opacity="1.000000" stroke="none" 
	d="
M149.931824,330.922607 
	C141.653580,330.922607 133.866577,330.922607 125.848839,330.922607 
	C125.848839,282.088928 125.848839,233.817703 125.848839,185.209641 
	C141.997330,185.209641 158.082733,185.209641 174.826050,185.209641 
	C177.917114,206.399155 181.029434,227.734344 184.141754,249.069550 
	C184.472992,249.102692 184.804214,249.135818 185.135452,249.168945 
	C187.893692,227.973557 190.651932,206.778152 193.454605,185.241318 
	C209.829773,185.241318 226.074936,185.241318 242.671036,185.241318 
	C242.671036,233.491852 242.671036,281.886139 242.671036,330.601929 
	C231.977295,330.601929 221.252380,330.601929 210.110992,330.601929 
	C210.110992,299.766479 210.110992,269.015656 210.110992,238.264832 
	C209.769409,238.235947 209.427826,238.207062 209.086227,238.178192 
	C204.910706,268.924805 200.735184,299.671417 196.528824,330.645142 
	C188.617126,330.645142 181.016968,330.645142 172.862549,330.645142 
	C168.530167,300.822327 164.188721,270.936981 159.847275,241.051605 
	C159.585144,241.068314 159.323013,241.085007 159.060883,241.101715 
	C159.060883,270.758575 159.060883,300.415466 159.060883,330.922607 
	C155.908691,330.922607 153.165878,330.922607 149.931824,330.922607 
z"/>
<path fill="#020201" opacity="1.000000" stroke="none" 
	d="
M286.000092,184.887527 
	C296.783234,185.561844 307.185486,185.471802 317.321747,187.069534 
	C332.407349,189.447433 340.752075,198.202484 341.052795,213.387192 
	C341.675507,244.827606 341.579285,276.299072 340.926331,307.740051 
	C340.644501,321.309509 332.408264,328.946045 318.571472,329.888153 
	C305.467407,330.780365 292.292633,330.678223 279.147034,330.899353 
	C271.672516,331.025085 264.194122,330.922089 256.359467,330.922089 
	C256.359467,282.300293 256.359467,233.935135 256.359467,184.878281 
	C266.002258,184.878281 275.751221,184.878281 286.000092,184.887527 
M293.932404,275.500000 
	C293.932404,285.444489 293.932404,295.388977 293.932404,305.314087 
	C302.697021,305.516998 305.037872,304.154907 305.179504,296.175232 
	C305.639740,270.248108 305.710114,244.309799 305.534119,218.378510 
	C305.486450,211.350601 302.437439,209.615402 293.932404,210.289749 
	C293.932404,231.665527 293.932404,253.082764 293.932404,275.500000 
z"/>
<path fill="#030301" opacity="1.000000" stroke="none" 
	d="
M391.577728,196.038086 
	C391.577698,207.925934 391.577698,219.319275 391.577698,231.991562 
	C401.602997,222.062836 412.599609,220.100754 424.636108,223.028503 
	C433.982788,225.301987 440.276520,231.654022 440.404053,241.208832 
	C440.723602,265.156494 440.745850,289.140930 439.720001,313.060577 
	C439.167206,325.950745 425.886139,334.145599 411.405640,332.648712 
	C403.557343,331.837402 397.334259,328.150940 392.194214,322.554993 
	C391.623688,322.980621 391.247284,323.110474 391.181885,323.332062 
	C388.941467,330.924622 388.945709,330.925873 381.067871,330.925873 
	C372.600739,330.925903 364.133636,330.925903 355.333130,330.925903 
	C355.333130,282.271179 355.333130,233.918945 355.333130,185.217773 
	C367.149231,185.217773 379.037964,185.217773 391.577759,185.217773 
	C391.577759,188.652328 391.577759,192.097961 391.577728,196.038086 
M403.990723,304.995056 
	C404.003540,286.888855 404.010895,268.782623 404.032898,250.676407 
	C404.038361,246.179459 402.137573,243.289169 397.380524,243.129837 
	C392.412506,242.963425 391.888733,246.554642 391.886871,250.255035 
	C391.877777,268.525238 391.903839,286.795593 391.990662,305.065582 
	C392.005768,308.242950 392.837982,311.294586 396.716614,311.513824 
	C400.545197,311.730255 403.666107,310.493073 403.990723,304.995056 
z"/>
<path fill="#030301" opacity="1.000000" stroke="none" 
	d="
M112.687515,253.000183 
	C112.687515,279.124664 112.687515,304.749115 112.687515,330.659851 
	C99.948174,330.659851 87.707741,330.659851 75.131149,330.659851 
	C75.131149,282.204041 75.131149,233.823853 75.131149,185.157928 
	C87.474113,185.157928 99.733871,185.157928 112.687523,185.157928 
	C112.687523,207.628311 112.687523,230.064240 112.687515,253.000183 
z"/>
<path fill="#E2B61E" opacity="1.000000" stroke="none" 
	d="
M293.932404,275.000000 
	C293.932404,253.082764 293.932404,231.665527 293.932404,210.289749 
	C302.437439,209.615402 305.486450,211.350601 305.534119,218.378510 
	C305.710114,244.309799 305.639740,270.248108 305.179504,296.175232 
	C305.037872,304.154907 302.697021,305.516998 293.932404,305.314087 
	C293.932404,295.388977 293.932404,285.444489 293.932404,275.000000 
z"/>
<path fill="#E4B81E" opacity="1.000000" stroke="none" 
	d="
M403.958893,305.437347 
	C403.666107,310.493073 400.545197,311.730255 396.716614,311.513824 
	C392.837982,311.294586 392.005768,308.242950 391.990662,305.065582 
	C391.903839,286.795593 391.877777,268.525238 391.886871,250.255035 
	C391.888733,246.554642 392.412506,242.963425 397.380524,243.129837 
	C402.137573,243.289169 404.038361,246.179459 404.032898,250.676407 
	C404.010895,268.782623 404.003540,286.888855 403.958893,305.437347 
z"/>
</svg>